<svg width="158" height="44" viewBox="0 0 158 44" fill="none" xmlns="http://www.w3.org/2000/svg">
<path d="M6.23739 12.35L2.20703 20.0077V22.4259L7.04346 26.4563L15.1042 28.4715L23.1649 34.517H34.0469V39.7565L39.6894 42.5777H46.1379L53.7956 34.517L56.6169 30.4866V24.4411L53.7956 12.35L46.1379 4.69234L37.6742 1.87109H28.0013L15.1042 4.69234L6.23739 12.35Z" stroke="black" stroke-opacity="0.5" stroke-width="2.41821"/>
<path d="M2.20703 21.3906L27.9369 12.3851L46.3766 15.3869L49.3784 7.66797" stroke="black" stroke-opacity="0.5" stroke-width="0.857662"/>
<path d="M15.9297 5.09766L27.937 12.3878L48.092 29.541M48.092 29.541L46.1381 14.7705M48.092 29.541L34.8531 33.7132" stroke="black" stroke-opacity="0.5" stroke-width="0.857662"/>
<path d="M10.3555 18.8203L14.6438 26.9681L48.0926 29.5411L56.6692 31.2564" stroke="black" stroke-opacity="0.5" stroke-width="0.857662"/>
<circle cx="10.2659" cy="18.7971" r="2.41821" fill="black" fill-opacity="0.5"/>
<circle cx="28.0048" cy="12.7509" r="2.82125" fill="black" fill-opacity="0.5"/>
<circle cx="45.7339" cy="15.1714" r="2.01518" fill="black" fill-opacity="0.5"/>
<circle cx="15.1043" cy="26.8582" r="1.61214" fill="black" fill-opacity="0.5"/>
<circle cx="48.154" cy="29.2751" r="3.22429" fill="black" fill-opacity="0.5"/>
<path d="M72.9163 25.5156L71.183 24.8768L70.2667 27.3629H72.9163V25.5156ZM77.7449 12.4147V10.5674H76.4571L76.0117 11.7758L77.7449 12.4147ZM79.916 12.4147L81.6508 11.7802L81.2073 10.5674H79.916V12.4147ZM84.7072 25.5156V27.3629H87.3496L86.442 24.8812L84.7072 25.5156ZM82.611 25.5156L80.8679 26.1272L81.3015 27.3629H82.611V25.5156ZM81.4881 22.3152L83.2311 21.7036L82.7976 20.468H81.4881V22.3152ZM76.1354 22.3152V20.468H74.8259L74.3923 21.7036L76.1354 22.3152ZM75.0124 25.5156V27.3629H76.322L76.7555 26.1272L75.0124 25.5156ZM76.6969 20.7431L74.9556 20.1263L74.0828 22.5904H76.6969V20.7431ZM80.9266 20.7431V22.5904H83.5407L82.6678 20.1263L80.9266 20.7431ZM78.8117 14.7728L80.553 14.156L78.8117 9.24053L77.0705 14.156L78.8117 14.7728ZM74.6496 26.1545L79.4782 13.0535L76.0117 11.7758L71.183 24.8768L74.6496 26.1545ZM77.7449 14.2619H79.916V10.5674H77.7449V14.2619ZM78.1811 13.0491L82.9723 26.1501L86.442 24.8812L81.6508 11.7802L78.1811 13.0491ZM84.7072 23.6684H82.611V27.3629H84.7072V23.6684ZM84.3541 24.904L83.2311 21.7036L79.745 22.9268L80.8679 26.1272L84.3541 24.904ZM81.4881 20.468H76.1354V24.1625H81.4881V20.468ZM74.3923 21.7036L73.2694 24.904L76.7555 26.1272L77.8785 22.9268L74.3923 21.7036ZM75.0124 23.6684H72.9163V27.3629H75.0124V23.6684ZM76.6969 22.5904H80.9266V18.8959H76.6969V22.5904ZM82.6678 20.1263L80.553 14.156L77.0705 15.3896L79.1854 21.3599L82.6678 20.1263ZM77.0705 14.156L74.9556 20.1263L78.4381 21.3599L80.553 15.3896L77.0705 14.156ZM86.5341 25.5156H84.6869V27.3629H86.5341V25.5156ZM86.5341 12.4147V10.5674H84.6869V12.4147H86.5341ZM88.518 12.4147H90.3652V10.5674H88.518V12.4147ZM88.518 25.5156V27.3629H90.3652V25.5156H88.518ZM88.3814 25.5156V12.4147H84.6869V25.5156H88.3814ZM86.5341 14.2619H88.518V10.5674H86.5341V14.2619ZM86.6707 12.4147V25.5156H90.3652V12.4147H86.6707ZM88.518 23.6684H86.5341V27.3629H88.518V23.6684ZM97.6887 25.2349L98.4683 23.5602L98.4683 23.5602L97.6887 25.2349ZM95.9855 23.7938L94.4297 24.7895L94.4367 24.8005L94.4438 24.8113L95.9855 23.7938ZM95.3679 21.5666V19.7194H93.4937L93.5209 21.5934L95.3679 21.5666ZM97.4641 21.5666L99.311 21.5336L99.2786 19.7194H97.4641V21.5666ZM98.194 23.3446L96.8709 24.6337L98.194 23.3446ZM101.975 23.5318L103.173 24.9372L103.177 24.9343L101.975 23.5318ZM102.311 20.9864L100.795 22.0413L100.81 22.0631L100.826 22.0844L102.311 20.9864ZM101.469 20.2752L100.597 21.9036L100.609 21.9099L100.621 21.916L101.469 20.2752ZM98.7929 19.2833L99.3898 17.5351L99.377 17.5309L98.7929 19.2833ZM96.5096 17.9732L95.1571 19.2314L95.1648 19.2397L95.1727 19.248L96.5096 17.9732ZM95.761 15.8583H97.6082V15.8427L97.6079 15.827L95.761 15.8583ZM96.2663 13.9306L94.7239 12.9141L94.7158 12.9264L94.7078 12.9389L96.2663 13.9306ZM97.7635 12.658L98.5501 14.3294L98.557 14.3261L98.5639 14.3228L97.7635 12.658ZM102.255 12.658L101.442 14.3167L101.455 14.3228L102.255 12.658ZM103.771 13.9681L102.219 14.9687L102.224 14.9767L102.229 14.9846L103.771 13.9681ZM104.333 15.8958V17.743H106.212L106.18 15.8645L104.333 15.8958ZM102.237 15.8958H100.389V17.743H102.237V15.8958ZM101.975 14.9413L100.363 15.8438L100.371 15.858L100.379 15.872L101.975 14.9413ZM101.207 14.1739L100.265 15.7631L100.265 15.7631L101.207 14.1739ZM99.972 13.8745L99.935 15.7214L99.9535 15.7217H99.972V13.8745ZM98.4186 14.3424L97.2754 12.8914L97.2645 12.9L97.2537 12.9087L98.4186 14.3424ZM98.2689 16.869L97.0206 18.2307L97.0206 18.2307L98.2689 16.869ZM99.5041 17.5615L98.8828 19.3011L98.9013 19.3077L98.9199 19.3139L99.5041 17.5615ZM101.301 18.1791L100.688 19.9216L100.707 19.9285L100.727 19.9349L101.301 18.1791ZM103.041 18.9464L102.108 20.5406L102.108 20.5406L103.041 18.9464ZM104.258 20.1255L102.685 21.0937L102.694 21.1081L102.703 21.1224L104.258 20.1255ZM104.22 23.8312L105.804 24.7816L105.809 24.774L105.814 24.7663L104.22 23.8312ZM102.704 25.2162L103.555 26.8561L103.567 26.8499L103.578 26.8436L102.704 25.2162ZM100.215 23.893C99.4699 23.893 98.9032 23.7627 98.4683 23.5602L96.9091 26.9096C97.9215 27.3809 99.0392 27.5875 100.215 27.5875V23.893ZM98.4683 23.5602C98.0326 23.3574 97.7378 23.0952 97.5273 22.7762L94.4438 24.8113C95.0568 25.7401 95.8974 26.4386 96.9091 26.9096L98.4683 23.5602ZM97.5414 22.798C97.3559 22.5082 97.2233 22.1138 97.215 21.5399L93.5209 21.5934C93.5375 22.7413 93.8166 23.8317 94.4297 24.7895L97.5414 22.798ZM95.3679 23.4139H97.4641V19.7194H95.3679V23.4139ZM95.6171 21.5996C95.6377 22.7536 96.0584 23.7998 96.8709 24.6337L99.517 22.0555C99.3813 21.9162 99.3154 21.7771 99.311 21.5336L95.6171 21.5996ZM96.8709 24.6337C97.7799 25.5667 98.9779 25.9218 100.197 25.9218V22.2273C99.6933 22.2273 99.5563 22.0958 99.517 22.0555L96.8709 24.6337ZM100.197 25.9218C101.237 25.9218 102.31 25.6735 103.173 24.9372L100.776 22.1263C100.774 22.1276 100.769 22.1323 100.755 22.1396C100.741 22.1471 100.715 22.1591 100.673 22.1721C100.586 22.1986 100.434 22.2273 100.197 22.2273V25.9218ZM103.177 24.9343C104.022 24.2099 104.477 23.2239 104.477 22.1094H100.782C100.782 22.1353 100.78 22.1458 100.78 22.1444C100.78 22.1438 100.781 22.1412 100.782 22.137C100.784 22.1328 100.786 22.1279 100.788 22.1227C100.79 22.1175 100.793 22.113 100.795 22.1093C100.797 22.1056 100.799 22.1037 100.799 22.1034C100.8 22.1027 100.793 22.1118 100.772 22.1292L103.177 24.9343ZM104.477 22.1094C104.477 21.3687 104.305 20.5756 103.797 19.8884L100.826 22.0844C100.808 22.0604 100.795 22.0378 100.786 22.0189C100.777 22.0004 100.773 21.9884 100.773 21.986C100.772 21.9821 100.782 22.0181 100.782 22.1094H104.477ZM103.828 19.9315C103.43 19.36 102.902 18.9368 102.318 18.6345L100.621 21.916C100.76 21.988 100.793 22.0389 100.795 22.0413L103.828 19.9315ZM102.342 18.6469C101.877 18.3979 101.366 18.1891 100.823 18.0128L99.6828 21.5271C100.062 21.6501 100.363 21.7782 100.597 21.9036L102.342 18.6469ZM100.823 18.0128C100.371 17.8663 99.8934 17.7071 99.3898 17.5352L98.196 21.0315C98.7155 21.2089 99.2112 21.3741 99.6828 21.5271L100.823 18.0128ZM99.377 17.5309C98.5357 17.2504 98.0789 16.9422 97.8465 16.6985L95.1727 19.248C95.9634 20.0773 97.0288 20.6425 98.2087 21.0358L99.377 17.5309ZM97.8621 16.715C97.7403 16.5841 97.6082 16.36 97.6082 15.8583H93.9137C93.9137 17.1035 94.2807 18.2893 95.1571 19.2314L97.8621 16.715ZM97.6079 15.827C97.6008 15.4037 97.6945 15.127 97.8247 14.9224L94.7078 12.9389C94.1393 13.8322 93.8962 14.8407 93.914 15.8896L97.6079 15.827ZM97.8087 14.9472C97.9705 14.7017 98.1989 14.4947 98.5501 14.3294L96.977 10.9865C96.0555 11.4202 95.2858 12.0616 94.7239 12.9141L97.8087 14.9472ZM98.5639 14.3228C98.9188 14.1522 99.3907 14.0373 100.028 14.0373V10.3428C98.9437 10.3428 97.9059 10.5399 96.9631 10.9931L98.5639 14.3228ZM100.028 14.0373C100.65 14.0373 101.104 14.1509 101.442 14.3166L103.068 10.9993C102.134 10.5412 101.103 10.3428 100.028 10.3428V14.0373ZM101.455 14.3228C101.821 14.4989 102.056 14.7161 102.219 14.9687L105.324 12.9674C104.763 12.0971 103.987 11.4408 103.056 10.9931L101.455 14.3228ZM102.229 14.9846C102.375 15.2066 102.478 15.4983 102.486 15.9271L106.18 15.8645C106.162 14.8209 105.891 13.8275 105.314 12.9515L102.229 14.9846ZM104.333 14.0485H102.237V17.743H104.333V14.0485ZM104.084 15.8958C104.084 15.222 103.905 14.5839 103.57 14.0105L100.379 15.872C100.385 15.8817 100.387 15.8879 100.389 15.8908C100.39 15.8937 100.39 15.8944 100.39 15.8935C100.389 15.8925 100.389 15.8914 100.389 15.8908C100.389 15.8901 100.389 15.8916 100.389 15.8958H104.084ZM103.586 14.0387C103.238 13.4163 102.738 12.934 102.149 12.5848L100.265 15.7631C100.35 15.8131 100.362 15.8424 100.363 15.8438L103.586 14.0387ZM102.149 12.5848C101.465 12.1797 100.71 12.0272 99.972 12.0272V15.7217C100.09 15.7217 100.166 15.7339 100.211 15.7446C100.232 15.7499 100.247 15.7549 100.254 15.758C100.259 15.7597 100.261 15.7609 100.263 15.7618C100.265 15.7626 100.265 15.763 100.265 15.7631L102.149 12.5848ZM100.009 12.0276C99.0426 12.0083 98.084 12.2543 97.2754 12.8914L99.5618 15.7934C99.5767 15.7816 99.6537 15.7157 99.935 15.7214L100.009 12.0276ZM97.2537 12.9087C96.3692 13.6274 95.9724 14.6326 95.9724 15.6899H99.6669C99.6669 15.6185 99.6787 15.6249 99.6574 15.6728C99.6474 15.6954 99.6336 15.7188 99.6172 15.7399C99.6011 15.7608 99.5878 15.7725 99.5834 15.776L97.2537 12.9087ZM95.9724 15.6899C95.9724 16.5758 96.2452 17.5199 97.0206 18.2307L99.5171 15.5073C99.5487 15.5362 99.5789 15.5709 99.6049 15.6096C99.6308 15.6481 99.6478 15.6834 99.6582 15.7107C99.6786 15.7642 99.6669 15.7681 99.6669 15.6899H95.9724ZM97.0206 18.2307C97.5556 18.7211 98.2071 19.0598 98.8828 19.3011L100.125 15.8218C99.753 15.6888 99.581 15.5659 99.5171 15.5073L97.0206 18.2307ZM98.9199 19.3139C99.432 19.4846 100.021 19.687 100.688 19.9216L101.914 16.4366C101.233 16.197 100.624 15.9877 100.088 15.809L98.9199 19.3139ZM100.727 19.9349C101.269 20.1121 101.726 20.3168 102.108 20.5406L103.975 17.3522C103.334 16.9771 102.63 16.6703 101.875 16.4233L100.727 19.9349ZM102.108 20.5406C102.368 20.693 102.55 20.8749 102.685 21.0937L105.831 19.1574C105.367 18.4029 104.737 17.7988 103.975 17.3522L102.108 20.5406ZM102.703 21.1224C102.775 21.2354 102.879 21.4803 102.879 21.9784H106.573C106.573 20.9792 106.364 19.9889 105.813 19.1286L102.703 21.1224ZM102.879 21.9784C102.879 22.3087 102.799 22.6038 102.627 22.8961L105.814 24.7663C106.316 23.9107 106.573 22.9706 106.573 21.9784H102.879ZM102.636 22.8808C102.498 23.1118 102.261 23.3577 101.83 23.5888L103.578 26.8436C104.496 26.351 105.269 25.6736 105.804 24.7816L102.636 22.8808ZM101.854 23.5763C101.51 23.7548 100.991 23.893 100.215 23.893V27.5875C101.411 27.5875 102.552 27.3762 103.555 26.8561L101.854 23.5763ZM108.766 25.1226L107.841 26.7213L107.853 26.7282L108.766 25.1226ZM107.082 23.4195L105.458 24.3002L105.467 24.3167L105.476 24.333L107.082 23.4195ZM107.082 18.3475L105.47 17.4458L105.464 17.4552L107.082 18.3475ZM108.766 16.6257L107.853 15.0201L107.841 15.027L108.766 16.6257ZM114.1 16.9064L112.969 18.3671L112.975 18.3715L112.981 18.3758L114.1 16.9064ZM115.616 19.3395V21.1867H117.913L117.421 18.9434L115.616 19.3395ZM113.539 19.3395L111.744 19.7772L112.088 21.1867H113.539V19.3395ZM112.715 18.1417L113.75 16.6116L113.75 16.6116L112.715 18.1417ZM109.871 18.0855L110.792 19.6864L110.81 19.676L110.828 19.6653L109.871 18.0855ZM108.879 19.1523L110.504 20.0307L110.508 20.0217L110.513 20.0126L108.879 19.1523ZM108.879 22.6147L107.244 23.475L107.249 23.4841L107.254 23.4931L108.879 22.6147ZM109.871 23.6815L108.913 25.2613L108.913 25.2613L109.871 23.6815ZM112.715 23.6253L113.75 25.1554L113.75 25.1554L112.715 23.6253ZM113.539 22.4088V20.5616H112.08L111.742 21.981L113.539 22.4088ZM115.616 22.4088L117.423 22.7928L117.897 20.5616H115.616V22.4088ZM114.119 24.8231L112.985 23.365L112.985 23.365L114.119 24.8231ZM111.218 23.893C110.597 23.893 110.099 23.7558 109.68 23.517L107.853 26.7282C108.881 27.3129 110.018 27.5875 111.218 27.5875V23.893ZM109.692 23.5239C109.268 23.2785 108.939 22.949 108.687 22.506L105.476 24.333C106.048 25.3373 106.842 26.1432 107.841 26.7213L109.692 23.5239ZM108.706 22.5388C108.473 22.1105 108.33 21.573 108.33 20.8741H104.636C104.636 22.0968 104.892 23.2561 105.458 24.3002L108.706 22.5388ZM108.33 20.8741C108.33 20.1745 108.474 19.6488 108.699 19.2399L105.464 17.4552C104.892 18.4935 104.636 19.6523 104.636 20.8741H108.33ZM108.694 19.2493C108.948 18.7949 109.276 18.4652 109.692 18.2243L107.841 15.027C106.834 15.6097 106.039 16.4279 105.47 17.4458L108.694 19.2493ZM109.68 18.2312C110.099 17.9925 110.597 17.8553 111.218 17.8553V14.1608C110.018 14.1608 108.881 14.4354 107.853 15.0201L109.68 18.2312ZM111.218 17.8553C112.03 17.8553 112.573 18.0605 112.969 18.3671L115.231 15.4458C114.08 14.5546 112.702 14.1608 111.218 14.1608V17.8553ZM112.981 18.3758C113.397 18.6926 113.675 19.1122 113.812 19.7355L117.421 18.9434C117.108 17.5204 116.376 16.318 115.22 15.4371L112.981 18.3758ZM115.616 17.4922H113.539V21.1867H115.616V17.4922ZM115.333 18.9017C115.103 17.9582 114.566 17.1636 113.75 16.6116L111.68 19.6717C111.698 19.6836 111.707 19.692 111.711 19.6959C111.715 19.6996 111.716 19.7016 111.717 19.7029C111.718 19.7041 111.721 19.7086 111.725 19.7185C111.73 19.7286 111.737 19.7473 111.744 19.7772L115.333 18.9017ZM113.75 16.6116C112.984 16.0935 112.115 15.8639 111.218 15.8639V19.5584C111.469 19.5584 111.598 19.6159 111.68 19.6717L113.75 16.6116ZM111.218 15.8639C110.398 15.8639 109.617 16.0793 108.913 16.5057L110.828 19.6653C110.948 19.5927 111.065 19.5584 111.218 19.5584V15.8639ZM108.949 16.4846C108.197 16.9177 107.635 17.5491 107.244 18.292L110.513 20.0126C110.621 19.8072 110.721 19.7274 110.792 19.6864L108.949 16.4846ZM107.254 18.2739C106.82 19.0757 106.657 19.9725 106.657 20.8741H110.352C110.352 20.4033 110.438 20.1522 110.504 20.0307L107.254 18.2739ZM106.657 20.8741C106.657 21.7783 106.821 22.6716 107.244 23.475L110.513 21.7543C110.437 21.6096 110.352 21.3425 110.352 20.8741H106.657ZM107.254 23.4931C107.645 24.2169 108.195 24.8263 108.913 25.2613L110.828 22.1017C110.722 22.0376 110.611 21.9358 110.504 21.7363L107.254 23.4931ZM108.913 25.2613C109.617 25.6877 110.398 25.9031 111.218 25.9031V22.2086C111.065 22.2086 110.948 22.1743 110.828 22.1017L108.913 25.2613ZM111.218 25.9031C112.115 25.9031 112.984 25.6735 113.75 25.1554L111.68 22.0953C111.598 22.1511 111.469 22.2086 111.218 22.2086V25.9031ZM113.75 25.1554C114.579 24.595 115.11 23.785 115.336 22.8367L111.742 21.981C111.726 22.0477 111.71 22.0701 111.71 22.0705C111.709 22.072 111.708 22.0734 111.705 22.0758C111.702 22.0784 111.695 22.0852 111.68 22.0953L113.75 25.1554ZM113.539 24.2561H115.616V20.5616H113.539V24.2561ZM113.809 22.0249C113.685 22.6083 113.418 23.0283 112.985 23.365L115.253 26.2813C116.392 25.3953 117.123 24.2056 117.423 22.7928L113.809 22.0249ZM112.985 23.365C112.571 23.6867 112.021 23.893 111.218 23.893V27.5875C112.711 27.5875 114.095 27.1824 115.253 26.2813L112.985 23.365ZM117.768 25.5156H115.921V27.3629H117.768V25.5156ZM117.768 12.0403V10.1931H115.921V12.0403H117.768ZM119.752 12.0403H121.599V10.1931H119.752V12.0403ZM119.752 17.7299H117.904V24.5824L121.349 18.6584L119.752 17.7299ZM121.043 16.476L121.928 18.0976L121.934 18.0942L121.94 18.0907L121.043 16.476ZM125.516 17.0561L126.882 15.8123L126.882 15.8123L125.516 17.0561ZM126.471 25.5156V27.3629H128.318V25.5156H126.471ZM124.505 25.5156H122.658V27.3629H124.505V25.5156ZM120.482 18.4785L119.144 17.2046L119.136 17.213L119.128 17.2216L120.482 18.4785ZM119.752 25.5156V27.3629H121.599V25.5156H119.752ZM119.615 25.5156V12.0403H115.921V25.5156H119.615ZM117.768 13.8876H119.752V10.1931H117.768V13.8876ZM117.904 12.0403V17.7299H121.599V12.0403H117.904ZM121.349 18.6584C121.49 18.416 121.673 18.2368 121.928 18.0976L120.158 14.8543C119.316 15.3141 118.638 15.9708 118.155 16.8014L121.349 18.6584ZM121.94 18.0907C122.214 17.9388 122.52 17.8553 122.896 17.8553V14.1608C121.924 14.1608 120.995 14.3892 120.146 14.8612L121.94 18.0907ZM122.896 17.8553C123.586 17.8553 123.926 18.0535 124.15 18.3L126.882 15.8123C125.834 14.6614 124.427 14.1608 122.896 14.1608V17.8553ZM124.15 18.3C124.359 18.5296 124.623 19.0461 124.623 20.1817H128.318C128.318 18.5473 127.945 16.9801 126.882 15.8123L124.15 18.3ZM124.623 20.1817V25.5156H128.318V20.1817H124.623ZM126.471 23.6684H124.505V27.3629H126.471V23.6684ZM126.353 25.5156V20.3875H122.658V25.5156H126.353ZM126.353 20.3875C126.353 19.2924 126.142 18.1293 125.411 17.2135C124.616 16.2184 123.479 15.8452 122.353 15.8452V19.5397C122.522 19.5397 122.585 19.5664 122.583 19.5656C122.57 19.5601 122.541 19.5406 122.524 19.519C122.51 19.5016 122.658 19.686 122.658 20.3875H126.353ZM122.353 15.8452C121.119 15.8452 120.005 16.3005 119.144 17.2046L121.819 19.7525C121.956 19.6085 122.09 19.5397 122.353 19.5397V15.8452ZM119.128 17.2216C118.224 18.1946 117.904 19.4556 117.904 20.7244H121.599C121.599 20.0468 121.766 19.8105 121.835 19.7355L119.128 17.2216ZM117.904 20.7244V25.5156H121.599V20.7244H117.904ZM119.752 23.6684H117.768V27.3629H119.752V23.6684ZM130.754 25.1413L129.816 26.7328L129.832 26.7426L129.849 26.7521L130.754 25.1413ZM129.088 23.4382L127.476 24.3399L127.482 24.3517L129.088 23.4382ZM129.088 18.3288L127.487 17.4065L127.482 17.4153L129.088 18.3288ZM130.791 16.6257L131.695 18.2365L131.706 18.2305L131.717 18.2243L130.791 16.6257ZM135.545 16.6257L134.607 18.2172L134.624 18.227L134.64 18.2365L135.545 16.6257ZM137.229 18.3288L135.617 19.2305L135.626 19.2469L135.636 19.263L137.229 18.3288ZM137.229 23.4382L135.629 22.5158L135.624 22.5247L137.229 23.4382ZM135.545 25.1413L136.449 26.7521L136.46 26.7461L136.47 26.74L135.545 25.1413ZM134.459 23.6815L133.538 22.0806L133.527 22.0868L133.516 22.0931L134.459 23.6815ZM135.451 22.6334L137.076 23.5118L137.081 23.5028L137.086 23.4938L135.451 22.6334ZM135.451 19.1336L133.799 19.9597L133.812 19.9861L133.826 20.012L135.451 19.1336ZM134.478 18.0668L133.535 19.6552L133.546 19.6615L133.556 19.6677L134.478 18.0668ZM131.839 18.0668L130.917 16.4659L130.907 16.4721L130.896 16.4784L131.839 18.0668ZM130.866 19.1336L132.491 20.012L132.496 20.003L132.501 19.9939L130.866 19.1336ZM130.866 22.6334L129.231 23.4938L129.236 23.5028L129.241 23.5118L130.866 22.6334ZM131.839 23.6815L132.782 22.0931L132.782 22.0931L131.839 23.6815ZM133.149 23.893C132.552 23.893 132.069 23.7616 131.658 23.5305L129.849 26.7521C130.86 27.3196 131.975 27.5875 133.149 27.5875V23.893ZM131.691 23.5498C131.278 23.3064 130.95 22.9757 130.693 22.5247L127.482 24.3517C128.049 25.348 128.831 26.1527 129.816 26.7328L131.691 23.5498ZM130.7 22.5364C130.465 22.1157 130.317 21.5807 130.317 20.8741H126.623C126.623 22.114 126.887 23.2884 127.476 24.3399L130.7 22.5364ZM130.317 20.8741C130.317 20.1667 130.465 19.6438 130.693 19.2423L127.482 17.4153C126.887 18.4612 126.623 19.6351 126.623 20.8741H130.317ZM130.688 19.2511C130.954 18.7904 131.286 18.4661 131.695 18.2365L129.887 15.0149C128.873 15.5838 128.07 16.395 127.487 17.4065L130.688 19.2511ZM131.717 18.2243C132.129 17.9857 132.598 17.8553 133.168 17.8553V14.1608C131.991 14.1608 130.876 14.4422 129.865 15.027L131.717 18.2243ZM133.168 17.8553C133.755 17.8553 134.218 17.9881 134.607 18.2172L136.483 15.0342C135.474 14.4398 134.352 14.1608 133.168 14.1608V17.8553ZM134.64 18.2365C135.044 18.4632 135.365 18.7808 135.617 19.2305L138.841 17.4271C138.269 16.4045 137.467 15.5867 136.449 15.0149L134.64 18.2365ZM135.636 19.263C135.869 19.6607 136.018 20.1761 136.018 20.8741H139.713C139.713 19.6258 139.438 18.4443 138.823 17.3946L135.636 19.263ZM136.018 20.8741C136.018 21.5714 135.869 22.0989 135.629 22.5159L138.83 24.3605C139.438 23.3052 139.713 22.1233 139.713 20.8741H136.018ZM135.624 22.5247C135.372 22.9677 135.043 23.2972 134.619 23.5427L136.47 26.74C137.469 26.1619 138.263 25.356 138.835 24.3517L135.624 22.5247ZM134.64 23.5305C134.229 23.7616 133.746 23.893 133.149 23.893V27.5875C134.324 27.5875 135.438 27.3196 136.449 26.7521L134.64 23.5305ZM133.149 25.8843C133.948 25.8843 134.711 25.6801 135.402 25.2699L133.516 22.0931C133.409 22.157 133.299 22.1898 133.149 22.1898V25.8843ZM135.381 25.2824C136.12 24.8568 136.681 24.2423 137.076 23.5118L133.826 21.755C133.722 21.9478 133.622 22.0321 133.538 22.0806L135.381 25.2824ZM137.086 23.4938C137.511 22.686 137.673 21.7845 137.673 20.8741H133.978C133.978 21.3612 133.89 21.6326 133.817 21.7731L137.086 23.4938ZM137.673 20.8741C137.673 19.9665 137.512 19.0613 137.076 18.2552L133.826 20.012C133.89 20.1292 133.978 20.3843 133.978 20.8741H137.673ZM137.103 18.3075C136.724 17.5479 136.161 16.9045 135.4 16.4659L133.556 19.6677C133.618 19.7032 133.705 19.771 133.799 19.9597L137.103 18.3075ZM135.421 16.4784C134.73 16.0682 133.967 15.8639 133.168 15.8639V19.5584C133.317 19.5584 133.427 19.5913 133.535 19.6552L135.421 16.4784ZM133.168 15.8639C132.37 15.8639 131.609 16.0678 130.917 16.4659L132.761 19.6677C132.893 19.5917 133.018 19.5584 133.168 19.5584V15.8639ZM130.896 16.4784C130.161 16.9151 129.615 17.5445 129.231 18.2732L132.501 19.9939C132.616 19.7744 132.719 19.6926 132.782 19.6552L130.896 16.4784ZM129.241 18.2552C128.805 19.0613 128.644 19.9665 128.644 20.8741H132.339C132.339 20.3843 132.428 20.1292 132.491 20.012L129.241 18.2552ZM128.644 20.8741C128.644 21.7845 128.806 22.686 129.231 23.4938L132.501 21.7731C132.427 21.6326 132.339 21.3612 132.339 20.8741H128.644ZM129.241 23.5118C129.628 24.2283 130.173 24.8408 130.896 25.2699L132.782 22.0931C132.706 22.048 132.603 21.9618 132.491 21.755L129.241 23.5118ZM130.896 25.2699C131.587 25.6801 132.35 25.8843 133.149 25.8843V22.1898C133 22.1898 132.89 22.157 132.782 22.0931L130.896 25.2699ZM141.957 25.1413L141.02 26.7328L141.036 26.7426L141.053 26.7521L141.957 25.1413ZM140.292 23.4382L138.679 24.3399L138.686 24.3517L140.292 23.4382ZM140.292 18.3288L138.691 17.4065L138.686 17.4153L140.292 18.3288ZM141.995 16.6257L142.899 18.2365L142.91 18.2305L142.92 18.2243L141.995 16.6257ZM146.749 16.6257L145.811 18.2172L145.827 18.227L145.844 18.2365L146.749 16.6257ZM148.433 18.3288L146.821 19.2305L146.83 19.2469L146.839 19.263L148.433 18.3288ZM148.433 23.4382L146.832 22.5158L146.827 22.5247L148.433 23.4382ZM146.749 25.1413L147.653 26.7521L147.664 26.7461L147.674 26.74L146.749 25.1413ZM145.663 23.6815L144.741 22.0806L144.731 22.0868L144.72 22.0931L145.663 23.6815ZM146.655 22.6334L148.28 23.5118L148.285 23.5028L148.29 23.4938L146.655 22.6334ZM146.655 19.1336L145.003 19.9597L145.016 19.9861L145.03 20.012L146.655 19.1336ZM145.682 18.0668L144.739 19.6552L144.749 19.6615L144.76 19.6677L145.682 18.0668ZM143.043 18.0668L142.121 16.4659L142.11 16.4721L142.1 16.4784L143.043 18.0668ZM142.07 19.1336L143.695 20.012L143.7 20.003L143.704 19.9939L142.07 19.1336ZM142.07 22.6334L140.435 23.4938L140.44 23.5028L140.445 23.5118L142.07 22.6334ZM143.043 23.6815L143.986 22.0931L143.986 22.0931L143.043 23.6815ZM144.353 23.893C143.756 23.893 143.273 23.7616 142.862 23.5305L141.053 26.7521C142.064 27.3196 143.178 27.5875 144.353 27.5875V23.893ZM142.895 23.5498C142.482 23.3064 142.154 22.9757 141.897 22.5247L138.686 24.3517C139.253 25.348 140.035 26.1527 141.02 26.7328L142.895 23.5498ZM141.904 22.5364C141.669 22.1157 141.521 21.5807 141.521 20.8741H137.827C137.827 22.114 138.091 23.2884 138.679 24.3399L141.904 22.5364ZM141.521 20.8741C141.521 20.1667 141.669 19.6438 141.897 19.2423L138.686 17.4153C138.091 18.4612 137.827 19.6351 137.827 20.8741H141.521ZM141.892 19.2511C142.158 18.7904 142.49 18.4661 142.899 18.2365L141.09 15.0149C140.077 15.5838 139.274 16.395 138.691 17.4065L141.892 19.2511ZM142.92 18.2243C143.332 17.9857 143.802 17.8553 144.372 17.8553V14.1608C143.194 14.1608 142.079 14.4422 141.069 15.027L142.92 18.2243ZM144.372 17.8553C144.959 17.8553 145.422 17.9881 145.811 18.2172L147.686 15.0342C146.678 14.4398 145.556 14.1608 144.372 14.1608V17.8553ZM145.844 18.2365C146.248 18.4632 146.569 18.7808 146.821 19.2305L150.045 17.4271C149.473 16.4045 148.671 15.5867 147.653 15.0149L145.844 18.2365ZM146.839 19.263C147.072 19.6607 147.222 20.1761 147.222 20.8741H150.917C150.917 19.6258 150.642 18.4443 150.027 17.3946L146.839 19.263ZM147.222 20.8741C147.222 21.5714 147.073 22.0989 146.832 22.5159L150.033 24.3605C150.642 23.3052 150.917 22.1233 150.917 20.8741H147.222ZM146.827 22.5247C146.575 22.9677 146.247 23.2972 145.823 23.5427L147.674 26.74C148.673 26.1619 149.467 25.356 150.039 24.3517L146.827 22.5247ZM145.844 23.5305C145.433 23.7616 144.95 23.893 144.353 23.893V27.5875C145.527 27.5875 146.642 27.3196 147.653 26.7521L145.844 23.5305ZM144.353 25.8843C145.152 25.8843 145.915 25.6801 146.606 25.2699L144.72 22.0931C144.612 22.157 144.503 22.1898 144.353 22.1898V25.8843ZM146.585 25.2824C147.324 24.8568 147.885 24.2423 148.28 23.5118L145.03 21.755C144.926 21.9478 144.826 22.0321 144.741 22.0806L146.585 25.2824ZM148.29 23.4938C148.715 22.686 148.877 21.7845 148.877 20.8741H145.182C145.182 21.3612 145.094 21.6326 145.02 21.7731L148.29 23.4938ZM148.877 20.8741C148.877 19.9665 148.716 19.0613 148.28 18.2552L145.03 20.012C145.093 20.1292 145.182 20.3843 145.182 20.8741H148.877ZM148.307 18.3075C147.927 17.5479 147.365 16.9045 146.603 16.4659L144.76 19.6677C144.822 19.7032 144.908 19.771 145.003 19.9597L148.307 18.3075ZM146.625 16.4784C145.934 16.0682 145.17 15.8639 144.372 15.8639V19.5584C144.521 19.5584 144.631 19.5913 144.739 19.6552L146.625 16.4784ZM144.372 15.8639C143.573 15.8639 142.813 16.0678 142.121 16.4659L143.965 19.6677C144.097 19.5917 144.222 19.5584 144.372 19.5584V15.8639ZM142.1 16.4784C141.364 16.9151 140.819 17.5445 140.435 18.2732L143.704 19.9939C143.82 19.7744 143.923 19.6926 143.986 19.6552L142.1 16.4784ZM140.445 18.2552C140.009 19.0613 139.848 19.9665 139.848 20.8741H143.543C143.543 20.3843 143.631 20.1292 143.695 20.012L140.445 18.2552ZM139.848 20.8741C139.848 21.7845 140.01 22.686 140.435 23.4938L143.704 21.7731C143.63 21.6326 143.543 21.3612 143.543 20.8741H139.848ZM140.445 23.5118C140.832 24.2283 141.377 24.8408 142.1 25.2699L143.986 22.0931C143.91 22.048 143.806 21.9618 143.695 21.755L140.445 23.5118ZM142.1 25.2699C142.791 25.6801 143.554 25.8843 144.353 25.8843V22.1898C144.203 22.1898 144.094 22.157 143.986 22.0931L142.1 25.2699ZM151.215 25.5156H149.367V27.3629H151.215V25.5156ZM151.215 12.0403V10.1931H149.367V12.0403H151.215ZM153.199 12.0403H155.046V10.1931H153.199V12.0403ZM153.199 25.5156V27.3629H155.046V25.5156H153.199ZM153.062 25.5156V12.0403H149.367V25.5156H153.062ZM151.215 13.8876H153.199V10.1931H151.215V13.8876ZM151.351 12.0403V25.5156H155.046V12.0403H151.351ZM153.199 23.6684H151.215V27.3629H153.199V23.6684Z" fill="black" fill-opacity="0.5"/>
<circle cx="112.238" cy="13.5621" r="2.01518" fill="black" fill-opacity="0.5"/>
<circle cx="112.238" cy="13.5621" r="1.61214" stroke="black" stroke-opacity="0.5" stroke-width="0.806072"/>
</svg>
