<svg width="60" height="60" viewBox="0 0 60 60" fill="none" xmlns="http://www.w3.org/2000/svg">
<path fill-rule="evenodd" clip-rule="evenodd" d="M24.8426 0.330402C15.8113 1.73136 7.2567 7.9956 3.1368 16.225C0.773856 20.9444 -0.0367389 24.4823 0.00126895 29.9114C0.0368864 35.0255 0.693299 38.0993 2.66062 42.3643C6.53479 50.7627 14.548 57.0791 23.7543 58.9919C26.7208 59.6082 32.7867 59.6082 35.7533 58.9919C43.368 57.4098 50.2723 52.785 54.56 46.3941C56.6361 43.2995 57.6931 40.8749 58.9407 36.3466C59.5151 34.2608 59.6437 26.5093 59.141 24.2571C58.9373 23.3445 58.721 22.3588 58.6603 22.067C58.4372 20.9934 57.2808 18.0424 56.3707 16.225C52.188 7.8702 43.6544 1.6913 34.3933 0.311912C31.5559 -0.110746 27.637 -0.10316 24.8426 0.330402ZM48.707 21.4206C49.754 22.0339 50.1119 22.859 50.2718 25.0294C50.3514 26.1063 50.5359 27.2086 50.682 27.4793C50.9779 28.0276 52.269 28.6425 53.1243 28.6425C53.6205 28.6425 53.671 28.7336 53.584 29.4722C53.4941 30.2353 53.4221 30.3019 52.689 30.3019C51.0618 30.3019 50.2316 31.7261 50.2015 34.5687C50.179 36.6863 48.7943 37.8874 46.3749 37.8874C45.2096 37.8874 45.172 37.8661 45.172 37.2064C45.172 36.5611 45.2356 36.5194 46.3852 36.4099C48.09 36.2473 48.3446 35.9045 48.5041 33.5563C48.6506 31.402 49.05 30.5216 50.1702 29.884L50.8247 29.5115L49.6715 28.4095L48.5186 27.3075V25.6157C48.5186 24.6852 48.3953 23.6553 48.2445 23.327C47.949 22.6841 46.7387 22.1607 45.8363 22.2854C45.3731 22.3494 45.2801 22.2403 45.2141 21.5557L45.1367 20.7509L46.5702 20.8799C47.3588 20.9508 48.3202 21.194 48.707 21.4206ZM14.8136 21.7373C14.8136 22.37 14.7366 22.4262 13.7133 22.5407C12.1176 22.7189 11.8502 23.0987 11.6957 25.4049C11.5487 27.6005 11.0682 28.5527 9.80036 29.1617L9.07463 29.5101L9.97199 30.0838C11.209 30.8746 11.7053 31.9638 11.7055 33.8905C11.706 35.9021 12.1098 36.4616 13.6874 36.6379C14.7502 36.7567 14.8136 36.8036 14.8136 37.4726V38.1814L13.3762 38.0782C10.8323 37.896 9.79462 36.6164 9.79414 33.6616C9.79367 32.0622 9.73893 31.8704 9.10188 31.2387C8.66682 30.8073 8.04554 30.4948 7.42857 30.3969C6.55583 30.2585 6.44706 30.1691 6.44706 29.5907C6.44706 29.0164 6.55774 28.9227 7.39081 28.7904C7.91001 28.7082 8.63598 28.3839 9.00411 28.0698C9.62179 27.5429 9.68347 27.3333 9.80418 25.3476C9.90434 23.7041 10.0494 23.0413 10.4192 22.5414C11.0962 21.6257 12.3435 21.0577 13.6781 21.0574C14.7691 21.057 14.8136 21.0838 14.8136 21.7373ZM18.6428 25.7124C19.2978 27.0996 19.8335 28.273 19.8335 28.3199C19.8335 28.592 18.5998 28.3448 18.4857 28.0499C18.3854 27.7906 17.974 27.6943 16.965 27.6943C15.956 27.6943 15.5446 27.7906 15.4442 28.0499C15.3686 28.2455 15.0254 28.4055 14.6816 28.4055C14.3379 28.4055 14.0924 28.3099 14.1364 28.1931C14.1801 28.0765 14.6974 26.9031 15.2857 25.5856C16.1931 23.5545 16.4388 23.1904 16.904 23.1904C17.3668 23.1904 17.6381 23.5839 18.6428 25.7124ZM23.4191 25.3238V27.4573H24.8534C26.1282 27.4573 26.2876 27.5099 26.2876 27.9314C26.2876 28.3683 26.1282 28.4055 24.2558 28.4055H22.2239V25.7979V23.1904H22.8215C23.4146 23.1904 23.4191 23.2063 23.4191 25.3238ZM30.1123 25.7979V28.4055H29.5147H28.9171V25.7979V23.1904H29.5147H30.1123V25.7979ZM36.7101 23.734C38.1308 24.4627 38.4184 26.2751 37.3085 27.5071C36.6626 28.2239 36.4948 28.2813 34.7985 28.3664L32.9808 28.4574V25.7913V23.1255L34.4856 23.2452C35.3134 23.3111 36.3143 23.531 36.7101 23.734ZM44.7054 25.7041C45.3566 27.0865 45.8892 28.2599 45.8892 28.3116C45.8892 28.5894 44.6576 28.3502 44.5414 28.0499C44.4406 27.7894 44.0268 27.6943 42.9951 27.6943C41.9022 27.6943 41.5864 27.774 41.5864 28.0499C41.5864 28.287 41.3473 28.4055 40.8693 28.4055C40.4748 28.4055 40.1521 28.3633 40.1521 28.3116C40.1521 28.2599 40.6847 27.0865 41.3359 25.7041C42.2875 23.6828 42.6176 23.1904 43.0206 23.1904C43.4237 23.1904 43.7538 23.6828 44.7054 25.7041ZM34.1761 25.9165C34.1761 27.4125 34.194 27.4573 34.7894 27.4573C35.4552 27.4573 36.3425 27.0671 36.6227 26.6513C37.2681 25.6927 36.3363 24.3757 35.0127 24.3757H34.1761V25.9165ZM16.6614 25.2646C16.5952 25.4929 16.4637 25.866 16.3688 26.0943C16.2266 26.437 16.3258 26.5091 16.9394 26.5091C17.7954 26.5091 17.805 26.4844 17.3173 25.549C16.893 24.7353 16.8237 24.7052 16.6614 25.2646ZM42.6898 25.5076C42.1797 26.4861 42.1871 26.5091 43.0206 26.5091C43.8528 26.5091 43.8343 26.5546 43.4069 25.5464L43.0763 24.7665L42.6898 25.5076ZM17.0405 31.3627C17.5097 31.4613 17.69 31.6272 17.635 31.9105C17.5743 32.2222 17.3063 32.3168 16.4835 32.3168C15.8938 32.3168 15.3894 32.4235 15.3629 32.5538C15.3361 32.6854 15.6806 32.7601 16.1369 32.7217C17.6305 32.596 18.4076 33.4186 17.9419 34.6327C17.6144 35.4873 16.3693 35.8604 15.1683 35.4638C14.1789 35.1369 13.9824 34.8781 14.3211 34.3469C14.4964 34.0721 14.6073 34.0636 14.8982 34.303C15.3431 34.6693 17.0116 34.5585 17.1457 34.1539C17.2155 33.9432 16.8949 33.8576 16.0341 33.8576C15.0399 33.8576 14.7612 33.7616 14.4686 33.319C14.2676 33.0147 14.1744 32.547 14.2542 32.2442C14.4093 31.6557 15.3906 31.0362 15.9882 31.1496C16.1967 31.1891 16.6702 31.2851 17.0405 31.3627ZM40.0921 31.8415C41.1442 33.0542 40.5549 35.2462 39.0781 35.6139C37.0154 36.1273 35.824 33.0595 37.5327 31.6336C38.3813 30.9255 39.3671 31.0054 40.0921 31.8415ZM23.1284 31.4504C23.2972 31.5566 23.3694 31.8135 23.2891 32.0214C23.1794 32.3047 22.9382 32.3666 22.3267 32.2682C21.327 32.1072 20.7896 32.4972 20.7896 33.3835C20.7896 34.2596 21.2983 34.6247 22.386 34.5294C23.5836 34.4244 23.8018 35.1012 22.6939 35.4842C21.6779 35.8353 20.4045 35.314 20.0517 34.4023C19.7001 33.4944 19.9516 32.166 20.5697 31.6649C21.099 31.2361 22.5892 31.1112 23.1284 31.4504ZM26.2876 31.7242C26.2876 32.1193 26.4471 32.1983 27.2438 32.1983C28.0405 32.1983 28.2 32.1193 28.2 31.7242C28.2 31.4082 28.3594 31.2501 28.6781 31.2501C29.1208 31.2501 29.1562 31.4082 29.1562 33.3835C29.1562 35.3588 29.1208 35.5169 28.6781 35.5169C28.2638 35.5169 28.2 35.3588 28.2 34.3317V33.1465H27.2438H26.2876V34.3317C26.2876 35.3588 26.2238 35.5169 25.8095 35.5169C25.3668 35.5169 25.3315 35.3588 25.3315 33.3835C25.3315 31.4082 25.3668 31.2501 25.8095 31.2501C26.1282 31.2501 26.2876 31.4082 26.2876 31.7242ZM34.2788 31.7057C35.329 32.8565 34.9023 35.0177 33.522 35.5383C32.3 35.9989 30.8295 34.8221 30.8295 33.3835C30.8295 32.7579 31.4381 31.5694 31.8404 31.4087C32.5879 31.1104 33.8792 31.2678 34.2788 31.7057ZM43.4987 32.9094V34.5687H44.4549C45.2516 34.5687 45.4111 34.6477 45.4111 35.0428C45.4111 35.4643 45.2516 35.5169 43.9768 35.5169H42.5426V33.3835C42.5426 31.4082 42.5779 31.2501 43.0206 31.2501C43.4533 31.2501 43.4987 31.4082 43.4987 32.9094ZM31.9812 32.7909C31.5688 33.6886 32.0486 34.5687 32.9502 34.5687C33.6753 34.5687 33.937 34.2302 33.937 33.2929C33.937 32.1288 32.4595 31.7495 31.9812 32.7909ZM37.7182 32.7909C37.3058 33.6886 37.7856 34.5687 38.6873 34.5687C39.4123 34.5687 39.674 34.2302 39.674 33.2929C39.674 32.1288 38.1965 31.7495 37.7182 32.7909Z" fill="black" fill-opacity="0.5"/>
</svg>
