<svg width="117" height="39" viewBox="0 0 117 39" fill="none" xmlns="http://www.w3.org/2000/svg">
<path d="M47.6914 27.0664V17.456H50.9727C52.0985 17.456 53.0229 17.6574 53.7459 18.0601C54.4782 18.4537 55.0182 19.012 55.366 19.735C55.7229 20.449 55.9014 21.291 55.9014 22.2612C55.9014 23.2314 55.7229 24.078 55.366 24.8011C55.0182 25.515 54.4782 26.0733 53.7459 26.4761C53.0229 26.8696 52.0985 27.0664 50.9727 27.0664H47.6914ZM49.4487 25.5562H50.8903C51.6957 25.5562 52.3318 25.4281 52.7986 25.1718C53.2654 24.9064 53.5995 24.5311 53.8009 24.046C54.0022 23.5517 54.1029 22.9568 54.1029 22.2612C54.1029 21.5747 54.0022 20.9844 53.8009 20.4901C53.5995 19.9959 53.2654 19.6161 52.7986 19.3506C52.3318 19.0852 51.6957 18.9525 50.8903 18.9525H49.4487V25.5562ZM60.7195 27.2312C60.033 27.2312 59.4244 27.0847 58.8935 26.7918C58.3627 26.4989 57.9462 26.0871 57.6442 25.5562C57.3421 25.0253 57.1911 24.4121 57.1911 23.7165C57.1911 23.0117 57.3376 22.3848 57.6304 21.8356C57.9325 21.2864 58.3444 20.8608 58.8661 20.5588C59.3969 20.2476 60.0193 20.092 60.7332 20.092C61.4014 20.092 61.9917 20.2384 62.5043 20.5313C63.0168 20.8242 63.415 21.2269 63.6987 21.7395C63.9916 22.2429 64.1381 22.8058 64.1381 23.4282C64.1381 23.5289 64.1335 23.6341 64.1243 23.744C64.1243 23.8538 64.1197 23.9682 64.1106 24.0872H58.9347C58.9713 24.618 59.1544 25.0345 59.4839 25.3365C59.8225 25.6386 60.2298 25.7896 60.7058 25.7896C61.0627 25.7896 61.3602 25.7118 61.5982 25.5562C61.8453 25.3915 62.0283 25.1809 62.1473 24.9247H63.9321C63.804 25.3548 63.5889 25.7484 63.2868 26.1054C62.994 26.4532 62.6278 26.7278 62.1885 26.9291C61.7583 27.1305 61.2687 27.2312 60.7195 27.2312ZM60.7332 21.5198C60.303 21.5198 59.9232 21.6434 59.5937 21.8905C59.2642 22.1285 59.0537 22.4946 58.9622 22.9888H62.3533C62.3258 22.5404 62.1611 22.1834 61.859 21.918C61.557 21.6525 61.1817 21.5198 60.7332 21.5198ZM68.4306 27.2312C67.8265 27.2312 67.2956 27.1351 66.838 26.9428C66.3803 26.7415 66.0142 26.4669 65.7396 26.1191C65.4651 25.7713 65.3003 25.3686 65.2454 24.9109H67.0165C67.0714 25.1764 67.2178 25.4052 67.4558 25.5974C67.7029 25.7804 68.0187 25.872 68.4031 25.872C68.7875 25.872 69.0667 25.7942 69.2406 25.6386C69.4236 25.483 69.5152 25.3045 69.5152 25.1031C69.5152 24.8102 69.387 24.6135 69.1307 24.5128C68.8745 24.403 68.5175 24.2977 68.0599 24.197C67.767 24.1329 67.4695 24.0551 67.1675 23.9636C66.8654 23.8721 66.5863 23.7577 66.33 23.6204C66.0829 23.4739 65.8815 23.2909 65.7259 23.0712C65.5703 22.8424 65.4925 22.5632 65.4925 22.2337C65.4925 21.6297 65.7305 21.1217 66.2064 20.7098C66.6915 20.2979 67.3688 20.092 68.2384 20.092C69.0438 20.092 69.6845 20.2796 70.1604 20.6549C70.6455 21.0302 70.9338 21.5473 71.0254 22.2063H69.3641C69.2635 21.7029 68.8836 21.4512 68.2246 21.4512C67.8951 21.4512 67.6388 21.5153 67.4558 21.6434C67.2819 21.7715 67.1949 21.9317 67.1949 22.1239C67.1949 22.3253 67.3277 22.4854 67.5931 22.6044C67.8585 22.7234 68.2109 22.8333 68.6502 22.9339C69.1262 23.0438 69.5609 23.1673 69.9545 23.3046C70.3572 23.4328 70.6776 23.6295 70.9155 23.895C71.1535 24.1513 71.2725 24.5219 71.2725 25.007C71.2816 25.4281 71.1718 25.8079 70.943 26.1466C70.7142 26.4852 70.3847 26.7506 69.9545 26.9428C69.5243 27.1351 69.0163 27.2312 68.4306 27.2312ZM73.7766 19.1996C73.4562 19.1996 73.1908 19.1035 72.9803 18.9113C72.7789 18.7191 72.6782 18.4765 72.6782 18.1836C72.6782 17.8908 72.7789 17.6528 72.9803 17.4697C73.1908 17.2775 73.4562 17.1814 73.7766 17.1814C74.0969 17.1814 74.3578 17.2775 74.5591 17.4697C74.7696 17.6528 74.8749 17.8908 74.8749 18.1836C74.8749 18.4765 74.7696 18.7191 74.5591 18.9113C74.3578 19.1035 74.0969 19.1996 73.7766 19.1996ZM72.8979 27.0664V20.2567H74.6552V27.0664H72.8979ZM79.3726 25.0345C79.0431 25.0345 78.7365 24.9979 78.4527 24.9247L77.9448 25.4326C78.1003 25.515 78.3109 25.5837 78.5763 25.6386C78.8417 25.6935 79.2719 25.7484 79.8668 25.8033C80.773 25.8857 81.432 26.1008 81.8438 26.4486C82.2557 26.7964 82.4616 27.2769 82.4616 27.8902C82.4616 28.2929 82.3518 28.6727 82.1321 29.0297C81.9125 29.3958 81.5738 29.6887 81.1162 29.9083C80.6585 30.1372 80.0728 30.2516 79.3589 30.2516C78.3887 30.2516 77.6061 30.0685 77.0112 29.7024C76.4162 29.3454 76.1188 28.8054 76.1188 28.0824C76.1188 27.4691 76.4162 26.9383 77.0112 26.4898C76.8281 26.4074 76.6679 26.3205 76.5306 26.2289C76.4025 26.1374 76.2881 26.0413 76.1874 25.9406V25.6248L77.3819 24.3618C76.851 23.895 76.5856 23.2955 76.5856 22.5632C76.5856 22.1056 76.6954 21.6892 76.9151 21.3139C77.1439 20.9386 77.4642 20.6412 77.8761 20.4215C78.288 20.2018 78.7868 20.092 79.3726 20.092C79.757 20.092 80.114 20.1469 80.4435 20.2567H83.0245V21.3276L81.8576 21.41C82.0406 21.7578 82.1321 22.1422 82.1321 22.5632C82.1321 23.0209 82.0223 23.4373 81.8026 23.8126C81.583 24.1879 81.2626 24.4853 80.8416 24.705C80.4297 24.9247 79.9401 25.0345 79.3726 25.0345ZM79.3726 23.689C79.7295 23.689 80.0224 23.5929 80.2512 23.4007C80.4892 23.2085 80.6082 22.9339 80.6082 22.577C80.6082 22.22 80.4892 21.9454 80.2512 21.7532C80.0224 21.561 79.7295 21.4649 79.3726 21.4649C78.9973 21.4649 78.6953 21.561 78.4665 21.7532C78.2376 21.9454 78.1232 22.22 78.1232 22.577C78.1232 22.9339 78.2376 23.2085 78.4665 23.4007C78.6953 23.5929 78.9973 23.689 79.3726 23.689ZM77.7251 27.9039C77.7251 28.2425 77.8807 28.4942 78.1919 28.659C78.5122 28.8329 78.9012 28.9198 79.3589 28.9198C79.7982 28.9198 80.1551 28.8283 80.4297 28.6453C80.7043 28.4714 80.8416 28.2334 80.8416 27.9313C80.8416 27.6842 80.7501 27.4783 80.567 27.3135C80.3931 27.1488 80.0407 27.0481 79.5099 27.0115C79.1346 26.984 78.7868 26.9428 78.4665 26.8879C78.201 27.0344 78.0088 27.1945 77.8898 27.3684C77.78 27.5424 77.7251 27.7208 77.7251 27.9039ZM84.306 27.0664V20.2567H85.8574L85.9946 21.41C86.2052 21.0073 86.5072 20.6869 86.9008 20.449C87.3035 20.211 87.7749 20.092 88.3149 20.092C89.1569 20.092 89.8113 20.3574 90.2781 20.8883C90.7449 21.4192 90.9783 22.1971 90.9783 23.2222V27.0664H89.221V23.387C89.221 22.8012 89.102 22.3527 88.864 22.0415C88.6261 21.7303 88.2554 21.5747 87.752 21.5747C87.2577 21.5747 86.8504 21.7486 86.5301 22.0965C86.2189 22.4443 86.0633 22.9294 86.0633 23.5517V27.0664H84.306ZM92.6999 27.0664V17.456H96.2558C97.0246 17.456 97.6607 17.5841 98.1641 17.8404C98.6675 18.0967 99.0428 18.4491 99.2899 18.8976C99.5371 19.346 99.6606 19.8495 99.6606 20.4078C99.6606 20.9386 99.5416 21.4283 99.3037 21.8768C99.0657 22.3161 98.695 22.6731 98.1916 22.9477C97.6882 23.2131 97.0429 23.3458 96.2558 23.3458H94.4573V27.0664H92.6999ZM94.4573 21.918H96.146C96.7592 21.918 97.1985 21.7853 97.4639 21.5198C97.7385 21.2452 97.8758 20.8746 97.8758 20.4078C97.8758 19.9318 97.7385 19.5611 97.4639 19.2957C97.1985 19.0211 96.7592 18.8838 96.146 18.8838H94.4573V21.918ZM102.917 27.2312C102.331 27.2312 101.85 27.1396 101.475 26.9566C101.1 26.7644 100.821 26.5127 100.638 26.2015C100.455 25.8903 100.363 25.547 100.363 25.1718C100.363 24.5402 100.61 24.0277 101.105 23.6341C101.599 23.2406 102.34 23.0438 103.329 23.0438H105.059V22.879C105.059 22.4122 104.926 22.069 104.66 21.8493C104.395 21.6297 104.065 21.5198 103.672 21.5198C103.315 21.5198 103.004 21.6068 102.738 21.7807C102.473 21.9454 102.308 22.1926 102.244 22.5221H100.528C100.574 22.0278 100.738 21.5976 101.022 21.2315C101.315 20.8654 101.69 20.5862 102.148 20.394C102.606 20.1927 103.118 20.092 103.686 20.092C104.656 20.092 105.42 20.3345 105.978 20.8196C106.537 21.3047 106.816 21.9912 106.816 22.879V27.0664H105.319L105.155 25.9681C104.953 26.3342 104.67 26.6362 104.303 26.8742C103.946 27.1122 103.484 27.2312 102.917 27.2312ZM103.315 25.8582C103.818 25.8582 104.207 25.6935 104.482 25.364C104.766 25.0345 104.944 24.6272 105.017 24.1421H103.521C103.054 24.1421 102.72 24.229 102.519 24.403C102.317 24.5677 102.217 24.7736 102.217 25.0208C102.217 25.2862 102.317 25.4921 102.519 25.6386C102.72 25.785 102.985 25.8582 103.315 25.8582ZM108.493 27.0664V17.1814H110.25V27.0664H108.493Z" fill="black" fill-opacity="0.5"/>
<path fill-rule="evenodd" clip-rule="evenodd" d="M0.992188 19.9315V34.4234C0.992188 36.9509 3.0411 38.9998 5.56857 38.9998H20.0604H34.5523C37.0798 38.9998 39.1287 36.9509 39.1287 34.4234V19.9315V5.43967C39.1287 2.9122 37.0798 0.863281 34.5523 0.863281H20.0604H5.56857C3.04111 0.863281 0.992188 2.9122 0.992188 5.43966V19.9315ZM21.485 13.1964C22.9958 13.4733 24.3548 14.3388 25.3695 15.6705C26.1437 16.6865 26.6279 17.8607 26.799 19.137C26.8387 19.4335 26.8445 20.3285 26.8086 20.6201C26.5931 22.3694 25.7904 24.0053 24.5605 25.2021C24.2637 25.491 24.0271 25.6826 23.6862 25.9103C23.1109 26.2947 22.5221 26.5367 21.8591 26.6613C21.7138 26.6886 21.5662 26.7025 21.4184 26.7026L17.4606 26.7072C15.1529 26.7098 13.2806 24.8398 13.2806 22.532V19.9319V17.1319C13.2806 14.9337 15.0626 13.1517 17.2608 13.1517H20.993C21.158 13.1517 21.3227 13.1667 21.485 13.1964ZM16.9811 13.6015C16.7114 13.7124 16.385 13.9506 15.4113 14.7474C14.0196 15.8861 13.8457 16.0306 13.819 16.0715C13.7725 16.1424 13.7668 16.2623 13.8059 16.3491C13.8324 16.4081 14.5092 17.3149 14.5864 17.3949C14.5942 17.403 15.394 16.7839 16.3638 16.0191C17.3337 15.2544 18.1299 14.6267 18.1334 14.6241C18.1398 14.6193 17.5665 13.8629 17.4404 13.7097C17.3147 13.5572 17.1712 13.5234 16.9811 13.6015ZM17.8358 15.6531C17.462 15.9488 17.1413 16.2015 17.1232 16.2147C17.0923 16.2373 17.0979 16.2492 17.2189 16.4158L17.3003 16.5281C17.3261 16.5635 17.376 16.5707 17.4106 16.5438C17.4454 16.5168 17.6774 16.3389 17.9261 16.1484C18.2067 15.9335 18.5794 15.8817 18.908 16.0118L19.4414 16.2229C20.0875 16.4788 20.5219 16.6602 20.5489 16.6854C20.6449 16.775 20.601 16.5286 21.348 21.1763C21.4557 21.8463 21.5471 22.4089 21.5511 22.4264C21.5551 22.444 21.5527 22.4559 21.5457 22.4529C21.5336 22.4478 21.019 21.9097 19.8849 20.7164C19.6076 20.4246 19.3618 20.1647 19.3386 20.1389C19.3145 20.1121 19.3142 20.0715 19.3378 20.0443L19.5124 19.8434C19.85 19.4548 19.9306 19.2876 19.9159 19.0068C19.9055 18.8099 19.8372 18.663 19.6856 18.5123C19.3776 18.2061 18.9851 18.1515 18.6578 18.3693C18.5311 18.4536 18.4783 18.5134 18.1288 18.9686L17.9605 19.1878C17.8784 19.2947 17.8872 19.4457 17.9811 19.5424C18.1525 19.7187 18.4287 20.0002 19.9133 21.5117C20.7614 22.3753 20.9236 22.5446 20.9023 22.5446C20.8974 22.5446 20.5849 22.4052 20.2077 22.2349C19.8305 22.0646 18.7433 21.5746 17.7917 21.146C16.84 20.7175 16.0402 20.3523 16.0144 20.3345C15.9106 20.263 15.9042 20.2293 15.771 19.061C15.7025 18.4608 15.6467 17.9523 15.647 17.931C15.6474 17.9011 15.7844 17.7879 16.2473 17.4346C16.5772 17.1829 16.8471 16.9715 16.8471 16.965C16.8471 16.9563 16.6749 16.7179 16.607 16.6324C16.6042 16.6289 16.2319 16.9181 15.7796 17.2752C14.972 17.9129 14.9575 17.9254 14.9666 17.979C14.9717 18.009 15.0317 18.5301 15.1001 19.137C15.1684 19.7439 15.2366 20.2842 15.2516 20.3376C15.3241 20.5956 15.5204 20.8418 15.748 20.9603C15.8136 20.9944 16.614 21.358 17.5268 21.7682C18.4396 22.1784 19.9251 22.8463 20.8278 23.2524C21.7306 23.6585 22.4719 23.988 22.4753 23.9846C22.4786 23.9813 22.3177 22.9627 22.1177 21.7211C21.9177 20.4795 21.6545 18.8439 21.5327 18.0865C21.393 17.2174 21.2965 16.6663 21.2712 16.5928C21.1995 16.3844 21.022 16.1682 20.8312 16.057C20.7909 16.0335 20.2613 15.8182 19.6544 15.5786C19.0474 15.339 18.5429 15.1368 18.5332 15.1293C18.5232 15.1214 18.2232 15.3468 17.8358 15.6531ZM19.1534 18.7771C19.2618 18.8224 19.3478 18.9009 19.397 18.9996C19.4845 19.1753 19.4438 19.2954 19.1902 19.6101C19.1039 19.7172 18.9432 19.7244 18.8476 19.6253L18.7495 19.5236C18.5966 19.365 18.4714 19.2288 18.4714 19.2211C18.4714 19.2017 18.6379 18.9867 18.7261 18.8922C18.8524 18.7569 19.0059 18.7156 19.1534 18.7771Z" fill="black" fill-opacity="0.5"/>
</svg>
