<svg width="145" height="39" viewBox="0 0 145 39" fill="none" xmlns="http://www.w3.org/2000/svg">
<path fill-rule="evenodd" clip-rule="evenodd" d="M13.3996 1.40431C4.70357 4.50636 -0.740748 12.6961 0.144774 21.3422C0.799349 27.7274 4.71724 33.484 10.4458 36.4781C15.4535 39.095 22.6887 39.0923 27.7039 36.4719C34.6589 32.8376 38.7852 25.3968 38.007 17.8937C37.5492 13.4757 36.2339 10.5492 34.8332 10.8307C33.6983 11.0596 33.6504 11.9978 34.4847 17.6717C35.4659 24.3479 31.9402 30.6908 25.6083 33.6391C21.1445 35.7176 16.982 35.7183 12.5776 33.6418C8.50667 31.7218 6.6509 29.8326 4.77736 25.7001C-0.0643079 15.0206 8.54766 3.26554 20.7147 3.94608C24.2144 4.1415 24.8847 3.99391 25.0829 2.98335C25.5618 0.544748 18.4886 -0.411151 13.3996 1.40431ZM37.5171 2.85079C37.5171 3.43636 37.8293 3.72265 38.2113 3.48692C38.5932 3.25051 38.7292 2.77153 38.5126 2.4217C37.927 1.474 37.5171 1.65028 37.5171 2.85079ZM27.531 5.50189C26.9906 6.91012 28.4446 8.64837 29.7455 8.14889C31.1087 7.62619 30.6468 4.93204 29.1449 4.64575C28.4863 4.52071 27.7599 4.9054 27.531 5.50189ZM35.3374 4.87602C35.1147 5.09876 35.0928 5.89341 35.2882 6.64091C35.7433 8.38189 37.8587 8.04094 37.8587 6.22685C37.8587 4.93409 36.1792 4.03422 35.3374 4.87602ZM32.0509 6.56848C32.0509 6.94428 32.3584 7.25176 32.7342 7.25176C33.11 7.25176 33.4174 6.94428 33.4174 6.56848C33.4174 6.19268 33.11 5.88521 32.7342 5.88521C32.3584 5.88521 32.0509 6.19268 32.0509 6.56848ZM84.0944 10.6695C84.3274 15.587 84.0855 16.2006 82.6131 14.4261C81.4707 13.0493 76.5087 13.104 74.4938 14.5156C72.6667 15.7947 70.9975 19.3628 70.9975 21.9879C70.9975 24.7415 73.0152 28.3813 75.1552 29.4882C77.6498 30.7782 81.5308 30.7625 82.6131 29.4581C83.6476 28.2112 84.6629 28.1264 84.6629 29.2873C84.6629 29.7574 85.4316 30.1414 86.3711 30.1414H88.0793V18.0133V5.88521H85.9734H83.8676L84.0944 10.6695ZM22.7973 11.8625C23.0016 12.3948 23.1683 12.9762 23.1683 13.1559C23.1683 13.3349 23.4758 13.2919 23.8516 13.0596C24.9141 12.403 24.6558 10.8957 23.4806 10.8957C22.852 10.8957 22.5759 11.2865 22.7973 11.8625ZM17.9495 12.3763C17.4077 13.7866 18.1422 15.451 19.3051 15.451C19.8347 15.451 20.6505 14.9898 21.1185 14.4261C21.797 13.6082 21.797 13.1942 21.1185 12.3763C20.6505 11.8126 19.8347 11.3514 19.3051 11.3514C18.7756 11.3514 18.1654 11.8126 17.9495 12.3763ZM42.3 21.8239V30.2466L44.3498 29.9453C46.3805 29.6474 46.3996 29.6037 46.3996 25.3134C46.3996 20.372 47.3542 17.7236 49.365 17.0854C51.9116 16.2771 53.2323 18.9719 53.2323 24.9745V30.2466L55.2822 29.9453L57.332 29.6447V24.598C57.332 20.4615 57.5787 19.304 58.6985 18.1841C61.9659 14.9167 64.1647 17.6669 64.1647 25.021V30.1865L66.0437 30.1011L67.9227 30.0157V23.1447C67.9227 17.3464 67.7198 16.0496 66.6211 14.8375C65.0188 13.0698 60.4245 12.884 58.1253 14.4944C56.6952 15.4961 56.4642 15.4961 55.3573 14.4944C53.8405 13.1211 49.8959 13.0794 47.9875 14.4166C46.7057 15.3144 46.4932 15.3144 46.1489 14.4166C45.9343 13.8583 44.9811 13.4012 44.0293 13.4012H42.3V21.8239ZM94.1515 15.3205C90.0464 18.9883 90.8534 27.0059 95.5727 29.4465C98.3379 30.8766 102.341 30.7393 104.99 29.124C107.544 27.5668 107.794 26.393 105.833 25.1685C104.666 24.4395 104.157 24.5297 102.495 25.7582C100.408 27.3017 98.5005 27.1411 96.6243 25.2649C94.7132 23.3538 95.5755 22.967 101.745 22.967H107.894V20.5073C107.894 18.6207 107.352 17.5056 105.571 15.7243C103.538 13.6916 102.814 13.4012 99.7742 13.4012C96.9317 13.4012 95.9096 13.7504 94.1515 15.3205ZM111.311 21.7939V30.1865L113.19 30.1072C115.052 30.0287 115.071 29.9774 115.41 24.3903C115.686 19.8472 116.009 18.5654 117.078 17.7858C118.622 16.6591 119.461 16.5921 120.876 17.4845C121.61 17.947 121.998 19.8185 122.243 24.0787C122.583 30.0054 122.591 30.028 124.464 30.1072L126.343 30.1865V23.5943C126.343 17.9593 126.137 16.7404 124.926 15.2016C123.788 13.7545 122.933 13.4012 120.569 13.4012C118.788 13.4012 117.292 13.8057 116.777 14.4261C116.309 14.9898 115.656 15.451 115.327 15.451C114.997 15.451 114.727 14.9898 114.727 14.4261C114.727 13.7886 114.082 13.4012 113.019 13.4012H111.311V21.7939ZM131.638 14.6024C129.326 16.0359 129.309 16.3454 131.481 17.5084C132.804 18.2162 133.39 18.2429 134.009 17.6238C135.158 16.4746 138.353 16.6269 139.618 17.891C141.381 19.6545 140.872 20.0508 137.286 19.7065C130.354 19.0403 126.656 24.8057 131.263 29.0974C133.045 30.7584 137.38 30.9634 138.885 29.4581C140.141 28.2023 140.691 28.1572 140.691 29.3099C140.691 29.8305 141.455 30.1537 142.57 30.1059L144.449 30.0252L144.646 23.7364C144.839 17.5651 144.805 17.41 142.82 15.4244C141.077 13.6814 140.292 13.4039 137.157 13.4197C134.946 13.4306 132.78 13.8945 131.638 14.6024ZM13.1591 15.1278C12.9076 15.7845 13.127 16.5292 13.6736 16.8757C15.0278 17.7318 15.994 17.261 15.994 15.7448C15.994 14.0947 13.744 13.6048 13.1591 15.1278ZM23.8181 17.1995C23.1841 17.9634 23.1841 18.4048 23.8181 19.1687C24.8499 20.4123 26.5847 19.7953 26.5847 18.1841C26.5847 16.573 24.8499 15.956 23.8181 17.1995ZM19.752 17.4605C19.752 17.8145 20.0594 18.2934 20.4352 18.5258C20.811 18.7581 21.1185 18.4684 21.1185 17.8828C21.1185 17.2972 20.811 16.8176 20.4352 16.8176C20.0594 16.8176 19.752 17.1066 19.752 17.4605ZM81.9681 17.5009C82.3036 17.5009 83.0408 18.3959 83.6066 19.4892C85.6803 23.5 82.6719 27.232 78.2586 26.1244C76.0851 25.5792 74.8033 22.4621 75.7394 19.9996C76.4657 18.0898 78.8462 16.6755 80.4485 17.2023C80.9486 17.3662 81.6326 17.5009 81.9681 17.5009ZM102.721 17.891C103.311 18.482 103.795 19.097 103.795 19.2575C103.795 19.4188 101.902 19.5507 99.589 19.5507C95.4265 19.5507 95.3964 19.5363 96.6202 18.1841C98.0995 16.5497 101.229 16.3994 102.721 17.891ZM14.9691 20.2339C13.9469 22.1437 15.2246 24.3336 17.3605 24.3336C19.1541 24.3336 20.466 22.5687 19.8989 20.9172C19.0933 18.5695 16.0835 18.152 14.9691 20.2339ZM10.9992 21.4297C11.1263 22.087 11.6825 22.6254 12.236 22.6254C12.7894 22.6254 13.3456 22.087 13.4727 21.4297C13.6339 20.5906 13.265 20.2339 12.236 20.2339C11.207 20.2339 10.838 20.5906 10.9992 21.4297ZM140.173 23.5553C140.451 23.8259 140.19 24.7442 139.595 25.5956C138.203 27.5825 134.349 27.4514 133.96 25.4036C133.479 22.8666 138.061 21.5035 140.173 23.5553ZM19.806 25.4152C19.8387 26.2112 20.0007 26.3731 20.2186 25.8286C20.4161 25.3353 20.3915 24.7456 20.1647 24.5187C19.9378 24.2919 19.7766 24.695 19.806 25.4152Z" fill="black" fill-opacity="0.5"/>
</svg>
