<svg width="196" height="42" viewBox="0 0 196 42" fill="none" xmlns="http://www.w3.org/2000/svg">
<path fill-rule="evenodd" clip-rule="evenodd" d="M7.60524 1.59576C6.11109 3.08963 7.113 5.40569 9.25325 5.40569C10.6518 5.40569 11.4152 4.61811 11.4152 3.17599C11.4152 1.13446 9.0482 0.152519 7.60524 1.59576ZM16.2551 3.10482L14.7663 5.26505L16.3356 5.34971C17.1988 5.3964 18.5352 5.3964 19.305 5.34971L20.705 5.26505L19.3987 3.29609C18.6803 2.21317 18.014 1.24107 17.9183 1.13587C17.8224 1.03067 17.0739 1.9167 16.2551 3.10482ZM24.7633 1.59576C23.2691 3.08963 24.271 5.40569 26.4113 5.40569C27.8098 5.40569 28.5732 4.61811 28.5732 3.17599C28.5732 1.13446 26.2062 0.152519 24.7633 1.59576ZM0.726562 16.6118C0.726562 25.1703 0.782537 26.3494 1.28209 28.3029C2.11524 31.5601 3.33121 33.634 5.91728 36.2088C8.39366 38.6748 10.5474 39.9296 13.6803 40.7321C16.1691 41.3697 20.9944 41.152 23.4322 40.2924C28.2295 38.6008 32.1637 34.6039 33.9619 29.5957C34.597 27.8259 34.621 27.436 34.7056 17.4304L34.7931 7.09336H17.7597H0.726562V16.6118ZM31.6672 13.2492V16.3106L19.1726 24.1141C12.3006 28.4059 6.57323 31.9219 6.44468 31.9272C6.04752 31.9435 4.70666 29.2227 4.25239 27.4791C3.9143 26.1807 3.82063 24.1251 3.82063 18.0042V10.1874H17.7439H31.6672V13.2492ZM94.1112 13.2815V15.2505H96.3614H98.6116V13.2815V11.3125H96.3614H94.1112V13.2815ZM160.212 13.2815V15.2505H162.462H164.712V13.2815V11.3125H162.462H160.212V13.2815ZM51.9193 19.5591C51.9193 28.4416 52.0743 29.4925 53.6967 31.6195C54.2669 32.3671 55.2443 33.146 56.2713 33.6714C57.8529 34.4801 58.0855 34.5181 61.4628 34.5181C64.7645 34.5181 65.0944 34.4674 66.444 33.7558C67.2389 33.3364 68.3491 32.456 68.9114 31.7992C70.6584 29.7583 70.8263 28.7715 70.9757 19.6806L71.1085 11.5938H68.9679H66.8271L66.8254 19.118C66.8246 23.4258 66.6997 27.0895 66.5335 27.6883C65.8775 30.0502 64.0163 31.3514 61.3166 31.336C59.416 31.325 58.6799 31.055 57.4678 29.9242C56.0693 28.6196 55.8572 27.1801 55.8572 18.9965V11.5938H53.8883H51.9193V19.5591ZM136.303 22.9856V34.3774H138.413H140.522V22.9856V11.5938H138.413H136.303V22.9856ZM7.75854 16.5303C7.75854 19.9461 7.99453 20.8386 9.26816 22.2388C11.6737 24.8834 16.4059 24.0781 17.9091 20.768C18.3211 19.8606 18.4362 18.9262 18.4409 16.4459L18.4471 13.2815H16.6188H14.7905V16.2349C14.7905 18.8134 14.7191 19.2598 14.228 19.7509C13.552 20.4268 12.8818 20.4648 12.0404 19.8755C11.459 19.4685 11.4152 19.2216 11.4152 16.3595V13.2815H9.58685H7.75854V16.5303ZM169.775 16.2349V18.6258H168.228H166.681V20.1728V21.7199H168.205H169.728L169.822 26.4527C169.913 31.0313 169.94 31.2226 170.664 32.3157C171.655 33.8115 173.079 34.4674 175.646 34.6092C178.02 34.7403 178.203 34.6089 178.209 32.7601L178.214 31.5646H176.929C174.213 31.5646 173.713 30.6038 173.713 25.3855V21.7199H175.823H177.932V20.1728V18.6258H175.823H173.713V16.2349V13.8441H171.744H169.775V16.2349ZM81.5009 18.9481C80.8306 19.2798 80.1356 19.7861 79.9564 20.073C79.4633 20.8625 79.2034 20.7028 79.2034 19.6103V18.6258H77.2344H75.2655V26.5016V34.3774H77.3751H79.4847L79.4858 29.2441C79.4866 24.5914 79.5398 24.0235 80.0545 23.1797C81.0787 21.4996 83.6369 20.9227 84.9688 22.0715C86.0013 22.9626 86.221 24.2857 86.2286 29.666L86.2354 34.3774H88.2043H90.1733V28.803C90.1733 22.5814 89.8847 20.9486 88.5627 19.6871C87.4949 18.6686 86.504 18.3445 84.4591 18.3448C83.2471 18.3448 82.3498 18.5279 81.5009 18.9481ZM122.582 19.0697C119.771 20.4701 118.467 22.8169 118.452 26.5016C118.443 28.5656 118.55 29.113 119.233 30.5042C120.643 33.3747 122.981 34.6587 126.797 34.6587C128.82 34.6587 131.477 33.9158 132.381 33.0973C132.857 32.667 132.854 32.5876 132.325 31.3135L131.77 29.9802L130.2 30.7723C127.631 32.0684 124.369 31.7261 123.268 30.0454C123.042 29.7006 122.728 28.9518 122.571 28.382L122.284 27.3455H127.787H133.29L133.108 25.3939C132.899 23.1415 132.614 22.2681 131.614 20.815C129.943 18.385 125.628 17.5516 122.582 19.0697ZM148.856 18.7574C146.736 19.5132 144.758 21.5863 144.183 23.6556C143.749 25.2179 143.842 28.4886 144.363 30.0187C144.97 31.7992 146.757 33.5862 148.538 34.1929C151.143 35.0806 155.468 34.6106 157.195 33.2517L157.912 32.6878L157.336 31.3236L156.76 29.9594L155.462 30.6862C153.739 31.651 151.09 31.7205 149.896 30.8319C148.547 29.8272 148.001 28.5805 148.001 26.5016C148.001 23.4261 149.404 21.7238 152.113 21.51C153.343 21.413 153.88 21.5339 155.201 22.2068L156.8 23.0211L157.281 21.7629C157.886 20.1765 157.671 19.8018 155.685 18.9861C153.894 18.2509 150.588 18.1403 148.856 18.7574ZM94.3925 26.5016V34.3774H96.3614H98.3304V26.5016V18.6258H96.3614H94.3925V26.5016ZM100.299 18.7259C100.299 18.794 101.801 22.312 103.637 26.5432L106.974 34.2368H108.877H110.781L113.968 26.9666C115.721 22.9679 117.232 19.4553 117.325 19.1611C117.481 18.67 117.334 18.6258 115.542 18.6258H113.589L111.819 22.9153C110.846 25.2747 109.806 27.7744 109.509 28.4706L108.969 29.7363L106.774 24.2514L104.579 18.7664L102.439 18.6843C101.262 18.639 100.299 18.6579 100.299 18.7259ZM160.493 26.5016V34.3774H162.462H164.431V26.5016V18.6258H162.462H160.493V26.5016ZM180.599 23.3372C181.728 25.9286 183.224 29.3484 183.923 30.9368L185.195 33.825L183.814 36.9101C183.054 38.607 182.433 40.066 182.433 40.1521C182.433 40.2384 183.349 40.2716 184.469 40.2263L186.504 40.1436L191.219 29.4562C193.812 23.5783 195.934 18.731 195.934 18.6849C195.934 18.639 195.024 18.6385 193.911 18.6837L191.889 18.7664L189.686 24.0936C188.474 27.0234 187.438 29.4666 187.382 29.5226C187.326 29.5785 186.292 27.1497 185.086 24.1251L182.892 18.6258H180.719H178.546L180.599 23.3372ZM31.6672 21.411V23.0711L24.2837 27.6445C20.2229 30.1599 16.8455 32.2628 16.7786 32.3173C16.6048 32.4599 18.5051 34.3774 18.8201 34.3774C19.0254 34.3774 26.942 29.5631 30.8009 27.0915L31.4819 26.6555L31.2912 27.6332C31.1865 28.1713 30.7238 29.3822 30.2631 30.3248C26.3131 38.4059 15.7744 40.5867 8.74301 34.7777C8.43361 34.522 8.30703 34.2593 8.46173 34.194C8.61644 34.1288 13.8693 30.8567 20.1348 26.923C26.4003 22.9893 31.5581 19.7661 31.5969 19.7608C31.6357 19.7554 31.6672 20.498 31.6672 21.411ZM127.874 21.584C128.806 22.0658 129.552 23.3088 129.552 24.378V25.0952H126.036C122.532 25.0952 122.52 25.093 122.52 24.4337C122.52 23.5749 123.611 21.9657 124.498 21.5171C125.441 21.0397 126.877 21.0681 127.874 21.584Z" fill="black" fill-opacity="0.5"/>
</svg>
